<?xml version="1.0" encoding="utf-8"?>
<svg version="1.1" xmlns:xlink="http://www.w3.org/1999/xlink" width="18px" height="5px" xmlns="http://www.w3.org/2000/svg">
  <g transform="matrix(1 0 0 1 -375 -82 )">
    <path d="M 4.55113636363636 0.364583333333333  C 4.78977272727273 0.607638888888887  4.90909090909091 0.902777777777777  4.90909090909091 1.25  L 4.90909090909091 3.75  C 4.90909090909091 4.09722222222222  4.78977272727273 4.39236111111111  4.55113636363636 4.63541666666667  C 4.3125 4.87847222222222  4.02272727272727 5  3.68181818181818 5  L 1.22727272727273 5  C 0.886363636363636 5  0.596590909090909 4.87847222222222  0.357954545454545 4.63541666666667  C 0.119318181818182 4.39236111111111  0 4.09722222222222  0 3.75  L 0 1.25  C 0 0.902777777777777  0.119318181818182 0.607638888888887  0.357954545454545 0.364583333333333  C 0.596590909090909 0.121527777777777  0.886363636363636 0  1.22727272727273 0  L 3.68181818181818 0  C 4.02272727272727 0  4.3125 0.121527777777777  4.55113636363636 0.364583333333333  Z M 11.0965909090909 0.364583333333333  C 11.3352272727273 0.607638888888887  11.4545454545455 0.902777777777777  11.4545454545455 1.25  L 11.4545454545455 3.75  C 11.4545454545455 4.09722222222222  11.3352272727273 4.39236111111111  11.0965909090909 4.63541666666667  C 10.8579545454545 4.87847222222222  10.5681818181818 5  10.2272727272727 5  L 7.77272727272727 5  C 7.43181818181818 5  7.14204545454546 4.87847222222222  6.90340909090909 4.63541666666667  C 6.66477272727273 4.39236111111111  6.54545454545455 4.09722222222222  6.54545454545455 3.75  L 6.54545454545455 1.25  C 6.54545454545455 0.902777777777777  6.66477272727273 0.607638888888887  6.90340909090909 0.364583333333333  C 7.14204545454546 0.121527777777777  7.43181818181818 0  7.77272727272727 0  L 10.2272727272727 0  C 10.5681818181818 0  10.8579545454545 0.121527777777777  11.0965909090909 0.364583333333333  Z M 17.6420454545455 0.364583333333333  C 17.8806818181818 0.607638888888887  18 0.902777777777777  18 1.25  L 18 3.75  C 18 4.09722222222222  17.8806818181818 4.39236111111111  17.6420454545455 4.63541666666667  C 17.4034090909091 4.87847222222222  17.1136363636364 5  16.7727272727273 5  L 14.3181818181818 5  C 13.9772727272727 5  13.6875 4.87847222222222  13.4488636363636 4.63541666666667  C 13.2102272727273 4.39236111111111  13.0909090909091 4.09722222222222  13.0909090909091 3.75  L 13.0909090909091 1.25  C 13.0909090909091 0.902777777777777  13.2102272727273 0.607638888888887  13.4488636363636 0.364583333333333  C 13.6875 0.121527777777777  13.9772727272727 0  14.3181818181818 0  L 16.7727272727273 0  C 17.1136363636364 0  17.4034090909091 0.121527777777777  17.6420454545455 0.364583333333333  Z " fill-rule="nonzero" fill="#000000" stroke="none" transform="matrix(1 0 0 1 375 82 )" />
  </g>
</svg>