<?xml version="1.0" encoding="utf-8"?>
<svg version="1.1" xmlns:xlink="http://www.w3.org/1999/xlink" width="300px" height="298px" xmlns="http://www.w3.org/2000/svg">
  <g transform="matrix(1 0 0 1 -35 -48 )">
    <path d="M 35 48  L 335 48  L 335 346  L 35 346  L 35 48  " fill-rule="nonzero" fill="#cccccc" stroke="none" />
    <path d="M 56 69  L 314 69  L 314 325  L 56 325  L 56 69  " fill-rule="nonzero" fill="#ffffff" stroke="none" />
    <path d="M 213.35 137.4  C 200.834 137.4  191 127.566  191 115.05  C 191 102.534  200.834 92.7  213.35 92.7  C 225.866 92.7  235.7 102.534  235.7 115.05  C 235.7 127.566  225.866 137.4  213.35 137.4  " fill-rule="nonzero" fill="#cccccc" stroke="none" />
    <path d="M 64 318  L 64 185.45  L 124.75 125.2  L 209.8 174.364  L 258.4 161.35  L 307 174.364  L 307 318  L 64 318  " fill-rule="nonzero" fill="#169bd5" stroke="none" />
  </g>
</svg>